<svg width="33" height="32" viewBox="0 0 33 32" fill="none" xmlns="http://www.w3.org/2000/svg">
<path d="M17.2444 1.27025C17.1979 1.18045 17.1253 1.10685 17.0362 1.05915C16.947 1.01145 16.8455 0.991893 16.745 1.00306C16.555 1.02418 12.0508 1.55531 8.47492 4.62037C8.42015 4.66731 8.37619 4.72554 8.34605 4.79107C8.3159 4.8566 8.3003 4.92787 8.30029 5V6.5H7.30029C6.10723 6.50134 4.96342 6.97587 4.11979 7.8195C3.27617 8.66312 2.80163 9.80694 2.80029 11V13.6602C2.79993 14.3095 2.94022 14.951 3.2115 15.5408C3.48279 16.1306 3.87863 16.6547 4.37179 17.0769L4.91317 17.541C4.28011 18.9896 3.80029 20.5615 3.80029 22C3.80029 23.5277 4.10386 27.4454 6.91617 30.8201C6.96309 30.8764 7.02182 30.9217 7.0882 30.9528C7.15458 30.9839 7.22699 31 7.30029 31H15.3003C15.6886 31 16.0715 30.9094 16.4187 30.7355C16.7659 30.5616 17.0677 30.3092 17.3003 29.9982C17.5328 30.3092 17.8347 30.5617 18.1819 30.7356C18.529 30.9095 18.912 31 19.3003 31C19.6886 31 20.0715 30.9095 20.4187 30.7356C20.7659 30.5617 21.0677 30.3092 21.3003 29.9982C21.6684 30.4905 22.2051 30.8298 22.8077 30.9513C23.4103 31.0727 24.0365 30.9678 24.5666 30.6566C25.0967 30.3453 25.4935 29.8496 25.6811 29.2642C25.8687 28.6789 25.8339 28.0449 25.5835 27.4835C26.1935 27.414 26.7566 27.1225 27.1654 26.6644C27.5742 26.2064 27.8001 25.6139 27.8001 25C27.8001 24.3861 27.5742 23.7936 27.1654 23.3356C26.7566 22.8775 26.1935 22.586 25.5835 22.5165C25.7764 22.0852 25.8425 21.608 25.774 21.1405C26.458 20.6752 27.5754 20.2363 29.2231 20.494C29.2881 20.5045 29.3546 20.502 29.4187 20.4868C29.4827 20.4715 29.5432 20.4437 29.5965 20.405C29.6498 20.3663 29.6949 20.3175 29.7293 20.2613C29.7636 20.2051 29.7866 20.1426 29.7967 20.0776C29.8069 20.0125 29.8041 19.946 29.7885 19.882C29.7729 19.818 29.7449 19.7578 29.7059 19.7046C29.6669 19.6515 29.6179 19.6066 29.5615 19.5726C29.5051 19.5385 29.4426 19.5158 29.3775 19.506C28.8564 19.4218 28.3274 19.3979 27.8009 19.435C27.753 18.7814 27.5898 18.1415 27.3187 17.5448C27.1783 17.2338 27.0115 16.9353 26.8203 16.6526C27.139 16.2213 27.8003 15.0761 27.8003 13C27.8003 12.9208 27.7815 12.8427 27.7454 12.7721C27.7093 12.7016 27.6569 12.6407 27.5927 12.5943C27.5284 12.548 27.454 12.5176 27.3757 12.5057C27.2974 12.4937 27.2173 12.5006 27.1422 12.5256L26.2117 12.8358C26.0029 11.9222 25.303 10.3072 22.9584 9.52562C22.8833 9.50057 22.8032 9.49373 22.7249 9.50568C22.6466 9.51763 22.5722 9.54802 22.5079 9.59435C22.4437 9.64068 22.3913 9.70161 22.3552 9.77214C22.3191 9.84267 22.3003 9.92077 22.3003 10V11.3965C21.5186 11.2771 20.1078 11.1577 18.679 11.5152C18.5544 11.5464 18.4465 11.6244 18.3778 11.7329C18.3091 11.8415 18.2848 11.9724 18.31 12.0984C18.329 12.1936 18.732 14.1472 19.9048 15.3891L18.5767 16.0531C18.5151 16.0839 18.4605 16.1271 18.4163 16.18C18.3722 16.2329 18.3395 16.2944 18.3202 16.3605C18.301 16.4267 18.2956 16.4961 18.3044 16.5644C18.3132 16.6327 18.3361 16.6985 18.3715 16.7576C18.3994 16.804 19.0698 17.8992 20.409 18.2002C21.1653 18.3703 21.967 18.256 22.8006 17.8606V19C22.8006 19.0167 22.8022 19.0332 22.8038 19.05C22.203 19.1725 21.6681 19.5111 21.3003 20.0017C21.0822 19.7099 20.8029 19.4694 20.4819 19.297C20.161 19.1247 19.8062 19.0247 19.4424 19.004C19.0787 18.9834 18.7149 19.0426 18.3765 19.1776C18.0381 19.3125 17.7334 19.5199 17.4837 19.7852C17.0039 17.9607 16.0602 16.1281 15.229 14.7427C13.6468 12.1056 13.3003 10.786 13.3003 10.5C13.3003 9.48894 13.5797 5.87587 17.174 1.83212C17.2411 1.75656 17.2838 1.66242 17.2964 1.56211C17.3089 1.4618 17.2908 1.36004 17.2444 1.27025ZM6.38204 14.725L6.36329 14.7099C6.18723 14.5698 6.04513 14.3916 5.94764 14.1888C5.85014 13.986 5.79977 13.7638 5.80029 13.5387V11C5.80076 10.6023 5.95894 10.2211 6.24014 9.93985C6.52135 9.65865 6.90261 9.50046 7.30029 9.5H8.30029V10.5C8.30029 10.7854 7.95511 12.1 6.38204 14.725ZM5.02254 16.3176C4.63898 15.9892 4.33111 15.5817 4.12011 15.1229C3.90912 14.6642 3.80001 14.1652 3.80029 13.6602V11C3.80134 10.0721 4.17042 9.18243 4.82657 8.52628C5.48272 7.87012 6.37236 7.50104 7.30029 7.5H8.30029V8.5H7.30029C6.63748 8.50074 6.00203 8.76437 5.53335 9.23305C5.06467 9.70173 4.80104 10.3372 4.80029 11V13.5387C4.79939 13.9138 4.88332 14.2842 5.0458 14.6223C5.20828 14.9603 5.4451 15.2573 5.73854 15.4909L5.87661 15.6014C5.70011 15.9205 5.52367 16.2545 5.35223 16.6002L5.02254 16.3176ZM4.80029 22C4.80134 21.7289 4.81946 21.4582 4.85454 21.1894L7.41817 22.2575C8.01468 22.5063 8.65781 22.6235 9.30373 22.6013C9.94965 22.579 10.5832 22.4178 11.1612 22.1286L12.7353 21.3416C13.2216 21.0999 13.7573 20.9742 14.3004 20.9742C14.8435 20.9742 15.3791 21.0999 15.8655 21.3416L16.7967 21.8071C16.7989 21.8721 16.8003 21.9366 16.8003 22.0002C16.8003 22.1814 16.7955 22.3664 16.787 22.5534C16.4219 22.6297 16.0786 22.7869 15.7821 23.0133C15.4857 23.2397 15.2437 23.5297 15.074 23.8618C14.9042 24.194 14.811 24.5599 14.8012 24.9328C14.7913 25.3057 14.8651 25.676 15.0171 26.0167C14.5797 26.0663 14.1631 26.2306 13.8097 26.493C13.4562 26.7554 13.1783 27.1065 13.0042 27.5108C12.83 27.9152 12.7658 28.3583 12.8181 28.7954C12.8703 29.2326 13.0372 29.6481 13.3017 30H7.53779C5.07086 26.9179 4.80029 23.3917 4.80029 22ZM21.3003 26.5C21.0036 26.5 20.7136 26.412 20.4669 26.2472C20.2203 26.0824 20.028 25.8481 19.9145 25.574C19.8009 25.2999 19.7712 24.9983 19.8291 24.7074C19.887 24.4164 20.0299 24.1491 20.2396 23.9393C20.4494 23.7296 20.7167 23.5867 21.0077 23.5288C21.2986 23.4709 21.6002 23.5006 21.8743 23.6142C22.1484 23.7277 22.3827 23.92 22.5475 24.1666C22.7123 24.4133 22.8003 24.7033 22.8003 25C22.7998 25.3977 22.6416 25.7789 22.3604 26.0601C22.0792 26.3414 21.698 26.4995 21.3003 26.5ZM17.3003 23.5C17.597 23.5 17.887 23.588 18.1336 23.7528C18.3803 23.9176 18.5726 24.1519 18.6861 24.426C18.7996 24.7001 18.8293 25.0017 18.7715 25.2926C18.7136 25.5836 18.5707 25.8509 18.361 26.0607C18.1512 26.2704 17.8839 26.4133 17.5929 26.4712C17.302 26.5291 17.0004 26.4993 16.7263 26.3858C16.4522 26.2723 16.2179 26.08 16.0531 25.8334C15.8883 25.5867 15.8003 25.2967 15.8003 25C15.8008 24.6023 15.9589 24.2211 16.2401 23.9398C16.5213 23.6586 16.9026 23.5005 17.3003 23.5ZM15.3003 30C15.0036 30 14.7136 29.912 14.4669 29.7472C14.2203 29.5824 14.028 29.3481 13.9145 29.074C13.8009 28.7999 13.7712 28.4983 13.8291 28.2074C13.887 27.9164 14.0299 27.6491 14.2396 27.4393C14.4494 27.2296 14.7167 27.0867 15.0077 27.0288C15.2986 26.9709 15.6002 27.0006 15.8743 27.1142C16.1484 27.2277 16.3827 27.42 16.5475 27.6666C16.7123 27.9133 16.8003 28.2033 16.8003 28.5C16.7998 28.8977 16.6416 29.2789 16.3604 29.5601C16.0792 29.8414 15.698 29.9995 15.3003 30ZM19.3003 30C19.0036 30 18.7136 29.912 18.4669 29.7472C18.2203 29.5824 18.028 29.3481 17.9145 29.074C17.8009 28.7999 17.7712 28.4983 17.8291 28.2074C17.887 27.9164 18.0299 27.6491 18.2396 27.4393C18.4494 27.2296 18.7167 27.0867 19.0077 27.0288C19.2986 26.9709 19.6002 27.0006 19.8743 27.1142C20.1484 27.2277 20.3827 27.42 20.5475 27.6666C20.7123 27.9133 20.8003 28.2033 20.8003 28.5C20.7998 28.8977 20.6416 29.2789 20.3604 29.5601C20.0792 29.8414 19.698 29.9995 19.3003 30ZM23.3003 30C23.0036 30 22.7136 29.912 22.4669 29.7472C22.2203 29.5824 22.028 29.3481 21.9145 29.074C21.8009 28.7999 21.7712 28.4983 21.8291 28.2074C21.887 27.9164 22.0299 27.6491 22.2396 27.4393C22.4494 27.2296 22.7167 27.0867 23.0077 27.0288C23.2986 26.9709 23.6002 27.0006 23.8743 27.1142C24.1484 27.2277 24.3827 27.42 24.5475 27.6666C24.7123 27.9133 24.8003 28.2033 24.8003 28.5C24.7998 28.8977 24.6416 29.2789 24.3604 29.5601C24.0792 29.8414 23.698 29.9995 23.3003 30ZM26.8003 25C26.8003 25.2967 26.7123 25.5867 26.5475 25.8334C26.3827 26.08 26.1484 26.2723 25.8743 26.3858C25.6002 26.4993 25.2986 26.5291 25.0077 26.4712C24.7167 26.4133 24.4494 26.2704 24.2396 26.0607C24.0299 25.8509 23.887 25.5836 23.8291 25.2926C23.7712 25.0017 23.8009 24.7001 23.9145 24.426C24.028 24.1519 24.2203 23.9176 24.4669 23.7528C24.7136 23.588 25.0036 23.5 25.3003 23.5C25.698 23.5005 26.0792 23.6586 26.3604 23.9398C26.6416 24.2211 26.7998 24.6023 26.8003 25ZM25.421 20.1785C25.1125 19.6849 24.6421 19.3137 24.0902 19.1285C24.6344 18.7984 25.4714 18.2263 26.1605 17.4777C26.2414 17.6163 26.3156 17.7581 26.3831 17.9032C26.6331 18.4347 26.7774 19.0097 26.8081 19.5963C26.3196 19.7209 25.8521 19.917 25.421 20.1785ZM20.6401 17.2269C20.2469 17.1355 19.8853 16.9407 19.5926 16.6628L21.0239 15.9472C21.1022 15.908 21.1688 15.849 21.2172 15.7759C21.2655 15.7029 21.2938 15.6185 21.2992 15.5311C21.3047 15.4437 21.2871 15.3564 21.2482 15.2779C21.2093 15.1994 21.1505 15.1326 21.0776 15.084C20.1408 14.4595 19.6311 13.1066 19.4159 12.3824C21.0924 12.1011 22.6622 12.481 22.679 12.4851C22.7527 12.5035 22.8296 12.5049 22.904 12.4891C22.9783 12.4734 23.0481 12.4409 23.108 12.3941C23.1679 12.3474 23.2163 12.2876 23.2496 12.2193C23.283 12.151 23.3003 12.076 23.3003 12V10.7432C25.2527 11.7077 25.2992 13.4231 25.3003 13.5C25.3003 13.5792 25.3191 13.6573 25.3552 13.7279C25.3913 13.7984 25.4437 13.8593 25.5079 13.9057C25.5722 13.952 25.6466 13.9824 25.7249 13.9943C25.8032 14.0063 25.8833 13.9994 25.9584 13.9744L26.7704 13.7037C26.7009 14.4949 26.5233 15.0629 26.369 15.4255C26.3098 15.5659 26.2415 15.7022 26.1647 15.8338C25.0709 14.6702 23.64 13.9551 22.4709 13.5301C22.4092 13.5076 22.3437 13.4976 22.2781 13.5004C22.2125 13.5033 22.1481 13.5191 22.0886 13.5469C22.0291 13.5746 21.9756 13.6139 21.9313 13.6623C21.8869 13.7107 21.8525 13.7674 21.8301 13.8291C21.8077 13.8908 21.7976 13.9564 21.8005 14.022C21.8034 14.0876 21.8191 14.152 21.8469 14.2115C21.8747 14.271 21.9139 14.3244 21.9623 14.3688C22.0108 14.4131 22.0675 14.4475 22.1292 14.4699C23.6179 15.0112 24.7658 15.7411 25.5604 16.6478C25.0215 17.2791 24.3204 17.7944 23.8002 18.1291V17C23.8002 16.9095 23.7757 16.8207 23.7292 16.7431C23.6826 16.6654 23.6159 16.6019 23.5361 16.5592C23.4563 16.5165 23.3665 16.4962 23.2761 16.5006C23.1857 16.505 23.0982 16.5338 23.0229 16.584C22.1503 17.1656 21.3485 17.3819 20.6401 17.2269ZM23.3003 20C23.597 20 23.887 20.088 24.1336 20.2528C24.3803 20.4176 24.5726 20.6519 24.6861 20.926C24.7996 21.2001 24.8293 21.5017 24.7715 21.7926C24.7136 22.0836 24.5707 22.3509 24.361 22.5607C24.1512 22.7704 23.8839 22.9133 23.5929 22.9712C23.302 23.0291 23.0004 22.9993 22.7263 22.8858C22.4522 22.7723 22.2179 22.58 22.0531 22.3334C21.8883 22.0867 21.8003 21.7967 21.8003 21.5C21.8008 21.1023 21.9589 20.7211 22.2401 20.4398C22.5213 20.1586 22.9026 20.0005 23.3003 20ZM19.3003 20C19.597 20 19.887 20.088 20.1336 20.2528C20.3803 20.4176 20.5726 20.6519 20.6861 20.926C20.7996 21.2001 20.8293 21.5017 20.7715 21.7926C20.7136 22.0836 20.5707 22.3509 20.361 22.5607C20.1512 22.7704 19.8839 22.9133 19.5929 22.9712C19.302 23.0291 19.0004 22.9993 18.7263 22.8858C18.4522 22.7723 18.2179 22.58 18.0531 22.3334C17.8883 22.0867 17.8003 21.7967 17.8003 21.5C17.8008 21.1023 17.9589 20.7211 18.2401 20.4398C18.5213 20.1586 18.9026 20.0005 19.3003 20ZM12.3003 10.5C12.3003 11.1312 12.8444 12.7121 14.3715 15.2572C15.5742 17.2616 16.3472 19.0843 16.6523 20.6167L16.3128 20.4469C15.6875 20.1362 14.9988 19.9745 14.3005 19.9745C13.6023 19.9745 12.9136 20.1362 12.2883 20.4469L10.7142 21.2339C10.2646 21.4588 9.77187 21.5842 9.26948 21.6015C8.7671 21.6188 8.26688 21.5276 7.80292 21.3342L5.04436 20.1852C5.39942 18.7464 6.13748 17.0766 7.22904 15.2572C8.75617 12.7121 9.30029 11.1312 9.30029 10.5V5.23287C11.4664 3.44656 14.0139 2.61468 15.5285 2.25162C12.5494 6.11919 12.3003 9.49287 12.3003 10.5Z" fill="#101A33"/>
</svg>
