<svg width="33" height="32" viewBox="0 0 33 32" fill="none" xmlns="http://www.w3.org/2000/svg">
<path d="M22.0931 11.3071L21.7849 10.2929C21.3935 9.14075 20.1422 8.52413 18.9901 8.91557C18.342 9.13577 17.833 9.64475 17.6128 10.2929L17.3046 11.3071C17.0453 12.1625 16.9909 13.0669 17.1457 13.9471C17.287 14.6882 17.7575 15.325 18.4245 15.6775L18.0793 23.3926C18.0331 23.8232 18.1728 24.2531 18.4633 24.5743C19.0881 25.2577 20.1487 25.3052 20.8321 24.6805C20.869 24.6467 20.9044 24.6113 20.9382 24.5743C21.2223 24.2622 21.3617 23.8449 21.3222 23.4247L20.9752 15.6766C21.6412 15.3238 22.111 14.6875 22.252 13.9471C22.4068 13.0669 22.3524 12.1625 22.0931 11.3071ZM21.3064 13.7801C21.2025 14.3125 20.823 14.7494 20.3104 14.9268C20.1158 14.9999 19.9905 15.19 19.9998 15.3977L20.3646 23.5006C20.3814 23.6595 20.329 23.818 20.2206 23.9354C19.9316 24.2216 19.4661 24.2216 19.1771 23.9354C19.0633 23.8085 19.0117 23.6376 19.036 23.4689L19.3979 15.3977C19.4073 15.19 19.2819 14.9999 19.0873 14.9268C18.5747 14.7494 18.1953 14.3125 18.0913 13.7801C17.9629 13.0493 18.0082 12.2985 18.2233 11.5884L18.5315 10.5737C18.7699 9.92897 19.4859 9.59963 20.1306 9.83807C20.4715 9.96413 20.7402 10.2329 20.8662 10.5737L21.1744 11.5884C21.3893 12.2986 21.4345 13.0493 21.3064 13.7801Z" fill="#101A33"/>
<path d="M14.6599 8.7998C14.3948 8.7998 14.1799 9.01472 14.1799 9.2798V13.4011L12.8805 14.7004C12.7844 14.7962 12.7333 14.9283 12.7399 15.0638L13.1599 23.4638C13.1699 23.6449 13.1041 23.8221 12.9784 23.9529C12.7157 24.218 12.2878 24.2199 12.0226 23.9571C12.0212 23.9557 12.0198 23.9543 12.0184 23.9529C11.8927 23.8221 11.827 23.6449 11.837 23.4638L12.2599 15.0638C12.2666 14.9283 12.2156 14.7963 12.1197 14.7004L10.8199 13.4011V9.2798C10.8199 9.01472 10.6049 8.7998 10.3399 8.7998C10.0748 8.7998 9.85986 9.01472 9.85986 9.2798V13.5998C9.85986 13.7271 9.9105 13.8492 10.0005 13.9392L11.2898 15.2289L10.8803 23.4172C10.8368 24.3117 11.5265 25.0721 12.421 25.1157C13.3154 25.1592 14.0758 24.4695 14.1194 23.575C14.122 23.5225 14.122 23.4699 14.1194 23.4173L13.7099 15.229L14.9992 13.9392C15.0892 13.8492 15.1399 13.7272 15.1399 13.5999V9.27987C15.1399 9.01473 14.9249 8.7998 14.6599 8.7998Z" fill="#101A33"/>
<path d="M11.7818 8.7998C11.5167 8.7998 11.3018 9.01472 11.3018 9.2798V13.1198C11.3018 13.3849 11.5167 13.5998 11.7818 13.5998C12.0468 13.5998 12.2618 13.3849 12.2618 13.1198V9.2798C12.2618 9.01472 12.0468 8.7998 11.7818 8.7998Z" fill="#101A33"/>
<path d="M13.2207 8.7998C12.9556 8.7998 12.7407 9.01472 12.7407 9.2798V13.1198C12.7407 13.3849 12.9556 13.5998 13.2207 13.5998C13.4858 13.5998 13.7007 13.3849 13.7007 13.1198V9.2798C13.7007 9.01472 13.4858 8.7998 13.2207 8.7998Z" fill="#101A33"/>
<path d="M16.1002 1.59961C8.14731 1.59961 1.7002 8.04673 1.7002 15.9996C1.7002 23.9525 8.14731 30.3996 16.1002 30.3996C24.0531 30.3996 30.5002 23.9525 30.5002 15.9996C30.4912 8.05045 24.0494 1.60861 16.1002 1.59961ZM16.1002 29.4396C8.67748 29.4396 2.6602 23.4223 2.6602 15.9996C2.6602 8.57689 8.67748 2.55961 16.1002 2.55961C23.5229 2.55961 29.5402 8.57689 29.5402 15.9996C29.5317 23.4188 23.5194 29.4311 16.1002 29.4396Z" fill="#101A33"/>
<path d="M17.6563 25.0096C17.6306 24.7458 17.3958 24.5527 17.1319 24.5785C17.1257 24.5791 17.1195 24.5798 17.1134 24.5806L17.1153 24.5802C16.4395 24.6586 15.7568 24.6586 15.081 24.5802C14.8176 24.5493 14.5791 24.7377 14.5482 25.0011C14.5173 25.2645 14.7058 25.503 14.9692 25.5339C15.7187 25.6215 16.4757 25.6215 17.2252 25.5339C17.489 25.5082 17.682 25.2735 17.6563 25.0096Z" fill="#101A33"/>
<path d="M23.4459 9.81413C23.2756 9.61103 22.9728 9.58445 22.7697 9.75485C22.769 9.75539 22.7684 9.75599 22.7677 9.75653C22.565 9.92741 22.5392 10.2302 22.7101 10.4328C25.6042 13.8684 25.3828 18.9486 22.2008 22.1194C22.013 22.3065 22.0124 22.6106 22.1996 22.7984C22.3867 22.9862 22.6907 22.9867 22.8785 22.7996C26.4148 19.2768 26.6614 13.6319 23.4459 9.81413Z" fill="#101A33"/>
<path d="M18.3646 6.66808C16.4887 6.2185 14.5213 6.33934 12.7145 7.01512C12.4663 7.10842 12.3409 7.38526 12.4342 7.63336C12.5045 7.82038 12.6833 7.94416 12.883 7.94434C12.9404 7.94404 12.9973 7.93354 13.051 7.9132C14.678 7.30474 16.4497 7.19608 18.139 7.6012C18.3967 7.66348 18.656 7.50514 18.7183 7.24744C18.7806 6.98974 18.6223 6.73036 18.3646 6.66808Z" fill="#101A33"/>
<path d="M9.97922 22.0961C8.36108 20.4807 7.45418 18.2866 7.4597 16.0001C7.45496 14.1734 8.0336 12.3928 9.11138 10.9179C9.27068 10.706 9.22802 10.4051 9.0161 10.2458C8.80418 10.0865 8.50328 10.1291 8.34398 10.341C8.34116 10.3448 8.3384 10.3486 8.3357 10.3524C5.56052 14.1677 5.96888 19.434 9.29906 22.7758C9.48674 22.9636 9.79118 22.9637 9.97898 22.776C10.1668 22.5884 10.1669 22.2839 9.97922 22.0961Z" fill="#101A33"/>
</svg>
