<svg width="17" height="16" viewBox="0 0 17 16" fill="none" xmlns="http://www.w3.org/2000/svg">
<path d="M2.89705 2.55379L2.96967 2.46967C3.23594 2.2034 3.6526 2.1792 3.94621 2.39705L4.03033 2.46967L8.5 6.939L12.9697 2.46967C13.2626 2.17678 13.7374 2.17678 14.0303 2.46967C14.3232 2.76256 14.3232 3.23744 14.0303 3.53033L9.561 8L14.0303 12.4697C14.2966 12.7359 14.3208 13.1526 14.1029 13.4462L14.0303 13.5303C13.7641 13.7966 13.3474 13.8208 13.0538 13.6029L12.9697 13.5303L8.5 9.061L4.03033 13.5303C3.73744 13.8232 3.26256 13.8232 2.96967 13.5303C2.67678 13.2374 2.67678 12.7626 2.96967 12.4697L7.439 8L2.96967 3.53033C2.7034 3.26406 2.6792 2.8474 2.89705 2.55379L2.96967 2.46967L2.89705 2.55379Z" fill="white"/>
</svg>
