<svg width="33" height="32" viewBox="0 0 33 32" fill="none" xmlns="http://www.w3.org/2000/svg">
<g clip-path="url(#clip0_359_550)">
<path d="M19.3544 9.36389L16.821 5.94524C16.6897 5.76806 16.4653 5.68656 16.2509 5.73774L11.8758 6.78563L11.8706 6.78656L11.8654 6.78813L9.53824 7.34557C9.2428 7.41632 9.06067 7.71319 9.13149 8.00863L10.0432 11.816C10.0771 11.958 10.1661 12.0806 10.2904 12.1568C10.3777 12.2104 10.4774 12.238 10.5781 12.238C10.6209 12.238 10.6639 12.233 10.7062 12.2228L13.0391 11.664L19.0406 10.2264C19.2202 10.1834 19.3662 10.0531 19.4294 9.87952C19.4926 9.70596 19.4644 9.51227 19.3544 9.36389ZM10.9851 11.0248L10.3296 8.28738L9.25961 8.54364L9.91562 11.281L10.9851 11.0248ZM10.9851 11.0248L10.3296 8.28738L16.1537 6.89256L17.975 9.35045L10.9851 11.0248Z" fill="#101A33"/>
<path d="M10.64 21.1579C10.64 21.1577 10.64 21.1575 10.64 21.1575C10.3615 19.9978 9.19151 19.2801 8.03145 19.5577C6.87139 19.8353 6.15361 21.0053 6.43126 22.1657C6.66857 23.1574 7.55773 23.8262 8.53561 23.8262C8.70183 23.8262 8.87071 23.8068 9.03924 23.7665C10.1996 23.4887 10.9178 22.3185 10.64 21.1579ZM8.796 22.7506C8.19595 22.8942 7.59073 22.5227 7.44706 21.9224C7.30346 21.3221 7.67463 20.717 8.27451 20.5735C8.36168 20.5526 8.44903 20.5426 8.53502 20.5426C9.04078 20.5426 9.50091 20.8883 9.62417 21.4011C9.76777 22.0016 9.3963 22.6069 8.796 22.7506Z" fill="#101A33"/>
<path d="M26.1698 17.4596C26.1698 17.4595 26.1697 17.4593 26.1697 17.4593C25.8913 16.2996 24.7213 15.5818 23.5612 15.8595C22.4012 16.1371 21.6834 17.3071 21.961 18.4675C22.1984 19.4592 23.0875 20.1279 24.0654 20.1279C24.2316 20.1279 24.4005 20.1086 24.569 20.0683C25.7294 19.7904 26.4476 18.6202 26.1698 17.4596ZM24.3258 19.0523C23.7257 19.196 23.1205 18.8245 22.9768 18.2242C22.8332 17.6239 23.2044 17.0187 23.8043 16.8752C23.8915 16.8543 23.9788 16.8444 24.0648 16.8444C24.5706 16.8444 25.0307 17.19 25.154 17.7029C25.2976 18.3033 24.9261 18.9086 24.3258 19.0523Z" fill="#101A33"/>
<path d="M32.4646 18.2001C32.2153 18.0264 31.8724 18.0876 31.6987 18.3369L29.3631 21.688L26.7965 21.3077C27.1823 20.9995 27.5157 20.6235 27.7815 20.1903C28.3615 19.2451 28.5525 18.137 28.3269 17.0563L30.5457 16.5246C30.8411 16.4538 31.0232 16.1569 30.9524 15.8614L30.3282 13.2555C30.2576 12.9601 29.9605 12.7779 29.6652 12.8486L28.8492 13.044L28.0312 9.62878C27.7832 8.5904 26.8647 7.82827 25.797 7.77545L20.0848 7.49833L18.1067 4.82775C17.6164 4.16768 16.7835 3.86518 15.985 4.05674L7.49228 6.09057C7.35034 6.12451 7.22778 6.21351 7.15153 6.33782C7.07515 6.4622 7.05147 6.61176 7.08546 6.75364L8.48879 12.6129L7.18972 12.9239L6.32765 9.3259C6.32765 9.3259 6.32765 9.32578 6.32765 9.32565L5.99246 7.92546C5.92177 7.62995 5.62477 7.44783 5.32939 7.51852C5.03395 7.5892 4.85176 7.88614 4.92245 8.18158L5.20802 9.37446L2.64944 14.0109L1.27049 14.3411C1.12855 14.3751 1.00599 14.4641 0.929675 14.5884C0.853425 14.7127 0.829612 14.8623 0.863612 15.0043L1.93762 19.4884L1.1223 19.6837C0.826862 19.7544 0.644736 20.0513 0.715424 20.3467L1.33962 22.9534C1.40005 23.2058 1.62549 23.3756 1.87418 23.3756C1.91656 23.3756 1.95968 23.3706 2.00268 23.3603L4.37395 22.7927C4.71826 24.0591 5.61802 25.0759 6.7724 25.5967L4.39239 26.7485L2.07712 25.9432C1.79024 25.8433 1.47662 25.9951 1.37687 26.2821C1.27705 26.569 1.4288 26.8826 1.71574 26.9823L4.2462 27.8625C4.30488 27.8828 4.36595 27.893 4.42695 27.893C4.5092 27.893 4.5912 27.8746 4.66657 27.8381L8.51329 25.9766C8.52047 25.9767 13.7785 25.9743 13.7785 25.9743C13.9244 25.9743 14.0643 25.9163 14.1674 25.8131L16.2267 23.7538L19.5715 24.6824C19.7008 24.7183 19.8385 24.7056 19.9592 24.6471L25.0681 22.1639L29.539 22.8262C29.7453 22.857 29.9516 22.7679 30.0709 22.5967L32.6014 18.966C32.7751 18.7167 32.7138 18.3738 32.4646 18.2001ZM29.3865 14.0468L29.7545 15.5829L27.9667 16.0114C27.7053 15.4844 27.3387 15.0204 26.894 14.6436L29.3865 14.0468ZM27.4185 11.7924L25.7761 12.1855L25.8211 11.5536C25.8388 11.3037 26.0145 11.0967 26.2586 11.0384L27.1848 10.8166L27.4185 11.7924ZM5.58821 10.9625L6.11952 13.1803L4.09707 13.6646L5.58821 10.9625ZM9.27979 13.5549C9.42173 13.521 9.54429 13.432 9.62061 13.3077C9.69686 13.1833 9.72073 13.0337 9.68667 12.8918L8.28335 7.03251L16.2414 5.12669C16.6111 5.038 16.9964 5.17819 17.223 5.48325L19.3559 8.36283C19.454 8.4954 19.6065 8.57683 19.7713 8.58483L25.7433 8.87452C26.2773 8.9009 26.7421 9.25328 26.9198 9.74878L26.0028 9.96841C25.2895 10.1388 24.7755 10.7447 24.7238 11.4758L24.6255 12.8562C24.613 13.0311 24.6847 13.2014 24.8183 13.3147C24.9188 13.4 25.0452 13.4453 25.1742 13.4453C25.2169 13.4453 25.2599 13.4403 25.3023 13.4302L27.6747 12.8622L27.7795 13.3002L25.4909 13.8482C24.7196 13.5852 23.8967 13.5465 23.0995 13.7376C21.1199 14.2115 19.7679 15.9829 19.7899 17.9698L12.3991 19.7397C11.5176 17.9583 9.51035 16.992 7.53197 17.4658C6.73353 17.657 6.01702 18.0644 5.44933 18.6476L3.00756 19.2323L2.0615 15.2832L9.27979 13.5549ZM4.22238 21.6979L2.28131 22.1625L1.91324 20.6256L4.55889 19.9921C4.33288 20.5297 4.21688 21.1097 4.22238 21.6979ZM9.28492 24.7881C9.08042 24.8373 8.87066 24.8661 8.65966 24.8742H8.40604C6.97571 24.8169 5.74452 23.8048 5.41058 22.4108C5.38277 22.2944 5.36127 22.1757 5.34658 22.0566C5.23077 21.1346 5.52239 20.207 6.14683 19.5117C6.58252 19.0261 7.14997 18.6887 7.78797 18.5359C9.38323 18.1538 11.0046 19.0277 11.5591 20.5687C11.5602 20.5717 11.5616 20.5744 11.5627 20.5773C11.6016 20.6857 11.6353 20.7986 11.6627 20.9132C12.0754 22.6371 11.0089 24.3754 9.28492 24.7881ZM19.6653 23.5667L16.2117 22.608C16.0206 22.5549 15.8158 22.6088 15.6756 22.7491L13.5505 24.8742H11.4162C12.5247 23.8771 13.0821 22.3339 12.7599 20.7847L19.9414 19.0649C20.3369 20.523 21.4452 21.6119 22.7978 22.0441L19.6653 23.5667ZM24.8525 21.0599C23.1291 21.4728 21.3911 20.4061 20.9783 18.6826C20.9503 18.5656 20.9289 18.4469 20.9143 18.3284C20.7101 16.7033 21.7596 15.1899 23.3558 14.8077C23.6043 14.7482 23.8559 14.7186 24.1068 14.7186C24.4989 14.7186 24.889 14.791 25.2606 14.9349C26.1323 15.2714 26.8122 15.9659 27.126 16.8402C27.129 16.8486 27.1322 16.857 27.1357 16.865C27.172 16.9682 27.2037 17.0758 27.2299 17.1853C27.43 18.0203 27.2929 18.8832 26.8439 19.6152C26.3948 20.3468 25.6876 20.86 24.8525 21.0599Z" fill="#101A33"/>
</g>
<defs>
<clipPath id="clip0_359_550">
<rect width="32" height="32" fill="white" transform="translate(0.700195)"/>
</clipPath>
</defs>
</svg>
