<svg width="21" height="20" viewBox="0 0 21 20" fill="none" xmlns="http://www.w3.org/2000/svg">
<g clip-path="url(#clip0_359_635)">
<path d="M13.617 10.5985C12.7344 9.22158 11.2311 8.39941 9.59578 8.39941C7.96057 8.39941 6.4572 9.22158 5.57473 10.5985L3.44793 13.9163C3.09506 14.4669 2.93224 15.1028 2.97698 15.7551C3.02173 16.4075 3.26999 17.0151 3.69485 17.5124C4.12 18.0095 4.68178 18.3492 5.31943 18.495C5.95708 18.6406 6.61074 18.5785 7.20964 18.3153L7.24869 18.2979C8.7558 17.6483 10.4784 17.6541 11.9818 18.3153C12.3695 18.4857 12.7803 18.5719 13.1948 18.5719C13.4202 18.5719 13.6469 18.5463 13.8715 18.4951C14.5092 18.3495 15.071 18.0098 15.4963 17.5127C15.9213 17.0156 16.1697 16.4078 16.2146 15.7554C16.2595 15.1028 16.0967 14.4669 15.7438 13.9162L13.617 10.5985ZM14.6225 16.7654C14.0815 17.3978 13.2063 17.5977 12.4446 17.2628C11.5393 16.8646 10.5674 16.6655 9.59533 16.6655C8.62411 16.6655 7.65244 16.8644 6.74767 17.2622L6.72193 17.2736C5.96606 17.5932 5.10378 17.3907 4.56879 16.7654C4.02841 16.1328 3.96691 15.2373 4.41585 14.5368L6.5428 11.2189C7.21293 10.1735 8.35415 9.54931 9.59578 9.54931C10.8374 9.54931 11.9788 10.1735 12.6491 11.2189L14.7757 14.5366C15.2248 15.2374 15.1631 16.1331 14.6225 16.7654Z" fill="#101A33"/>
<path d="M4.02049 10.5943C4.65321 10.3513 5.13388 9.84145 5.37406 9.1586C5.60243 8.50883 5.58372 7.77525 5.32109 7.09286C5.0583 6.41091 4.58033 5.85422 3.9753 5.52514C3.33944 5.1796 2.64103 5.12333 2.00937 5.36681C0.738556 5.85541 0.155376 7.42582 0.709524 8.86828C1.15218 10.0164 2.18461 10.7411 3.2284 10.7411C3.49493 10.7411 3.7622 10.6938 4.02049 10.5943ZM1.7825 8.45525C1.45597 7.60525 1.74285 6.70108 2.4224 6.43979C2.54511 6.3925 2.67486 6.36901 2.80729 6.36901C3.01171 6.36901 3.22287 6.42483 3.42609 6.53542C3.79153 6.734 4.08349 7.07879 4.24811 7.50603C4.41257 7.93358 4.42724 8.38492 4.28926 8.77715C4.16281 9.1366 3.92083 9.40088 3.60806 9.52105L3.60746 9.52135C2.92881 9.78293 2.11008 9.30451 1.7825 8.45525Z" fill="#101A33"/>
<path d="M8.14699 7.99453C9.73566 7.99453 11.0282 6.52199 11.0282 4.71199C11.0282 2.90155 9.73566 1.42871 8.14699 1.42871C6.55848 1.42871 5.26611 2.90155 5.26611 4.71199C5.26611 6.52199 6.55848 7.99453 8.14699 7.99453ZM8.14699 2.57846C9.1016 2.57846 9.87842 3.53561 9.87842 4.71199C9.87842 5.88793 9.1016 6.84478 8.14699 6.84478C7.19239 6.84478 6.41586 5.88793 6.41586 4.71199C6.41586 3.53561 7.19239 2.57846 8.14699 2.57846Z" fill="#101A33"/>
<path d="M13.1232 8.80085H13.1233C13.3677 8.88196 13.617 8.92072 13.8653 8.92072C15.0239 8.92072 16.153 8.07745 16.5838 6.7815C16.8319 6.0355 16.8156 5.2467 16.5379 4.56057C16.2473 3.8424 15.7087 3.32103 15.0212 3.09237C14.3337 2.864 13.5898 2.95918 12.927 3.36054C12.2938 3.74408 11.8087 4.36602 11.561 5.11202C11.038 6.68572 11.7388 8.34053 13.1232 8.80085ZM12.6521 5.47462C12.8139 4.98751 13.123 4.58616 13.5228 4.34402C13.8925 4.12 14.296 4.06299 14.6586 4.18345C15.021 4.30407 15.3099 4.59109 15.4721 4.99185C15.6473 5.42493 15.6548 5.93164 15.4927 6.41875C15.1696 7.39086 14.2694 7.97 13.4859 7.70976C12.7031 7.44938 12.329 6.44673 12.6521 5.47462Z" fill="#101A33"/>
<path d="M19.1904 8.41755L19.1899 8.4171C18.0944 7.60781 16.4559 7.95858 15.5372 9.19947C14.6194 10.4409 14.7629 12.11 15.8568 12.9199C16.2558 13.2154 16.7272 13.3567 17.2096 13.3567C18.0505 13.3567 18.9254 12.9275 19.51 12.1383C20.4278 10.8968 20.2845 9.22775 19.1904 8.41755ZM18.5859 11.4542C18.0435 12.1864 17.1263 12.4293 16.541 11.9958C15.9562 11.5629 15.9206 10.615 16.4615 9.88321C16.8211 9.39745 17.3464 9.12718 17.8305 9.12718C18.0753 9.12718 18.3097 9.19632 18.5066 9.34193C19.091 9.77531 19.1265 10.7229 18.5859 11.4542Z" fill="#101A33"/>
</g>
<defs>
<clipPath id="clip0_359_635">
<rect width="20" height="20" fill="white" transform="translate(0.5)"/>
</clipPath>
</defs>
</svg>
