<svg width="33" height="32" viewBox="0 0 33 32" fill="none" xmlns="http://www.w3.org/2000/svg">
<path d="M17.4219 10.2212C17.9392 9.9398 18.5324 9.78027 19.1632 9.78027C21.1797 9.78027 22.8143 11.4149 22.8143 13.4314" stroke="black" stroke-miterlimit="10" stroke-linecap="round" stroke-linejoin="round"/>
<path d="M22.8145 13.4314C22.8145 12.19 23.8205 11.1846 25.0613 11.1846C26.3021 11.1846 27.3082 12.19 27.3082 13.4314" stroke="black" stroke-miterlimit="10" stroke-linecap="round" stroke-linejoin="round"/>
<path d="M25.061 11.1844C25.1198 11.0235 25.2393 10.7607 25.4792 10.5062C25.7622 10.2062 26.0714 10.0674 26.2396 10.0059" stroke="black" stroke-miterlimit="10" stroke-linecap="round" stroke-linejoin="round"/>
<path d="M4.66529 13.4317C2.90038 10.9613 2.36113 8.45263 3.52051 7.29325C4.97648 5.83785 8.55909 7.06014 11.5233 10.0237C12.6209 11.1213 13.4797 12.3037 14.0521 13.4317" stroke="black" stroke-miterlimit="10" stroke-linecap="round" stroke-linejoin="round"/>
<path d="M17.4219 13.4316H19.6693H27.3075H28.9932C29.3033 13.4316 29.5549 13.6827 29.5549 13.9934V16.2402C29.5549 16.5503 29.3033 16.8019 28.9932 16.8019H25.1887" stroke="black" stroke-miterlimit="10" stroke-linecap="round" stroke-linejoin="round"/>
<path d="M14.0515 13.4316H2.48017C2.17011 13.4316 1.91846 13.6827 1.91846 13.9934V16.2402C1.91846 16.5503 2.17011 16.8019 2.48017 16.8019H15.7366H21.788" stroke="black" stroke-miterlimit="10" stroke-linecap="round" stroke-linejoin="round"/>
<path d="M28.4315 16.8018L25.5416 26.4348C25.2565 27.3852 24.3817 28.0361 23.3895 28.0361H8.084C7.09179 28.0361 6.21703 27.3852 5.9319 26.4348L3.04199 16.8018" stroke="black" stroke-miterlimit="10" stroke-linecap="round" stroke-linejoin="round"/>
<path d="M14.0513 6.03473V5.32186C14.0513 4.39121 14.8057 3.63672 15.7364 3.63672C16.6671 3.63672 17.4216 4.39116 17.4216 5.32186V15.1165C17.4216 16.0471 16.6671 16.8016 15.7364 16.8016C14.8057 16.8016 14.0513 16.0471 14.0513 15.1165V10.5284" stroke="black" stroke-miterlimit="10" stroke-linecap="round" stroke-linejoin="round"/>
<path d="M14.0514 8.84413C14.7743 8.84413 14.7754 7.7207 14.0514 7.7207C13.3285 7.72076 13.3273 8.84413 14.0514 8.84413Z" fill="black"/>
<path d="M19.6685 13.4316L23.4881 19.5065L27.3077 13.4316" stroke="black" stroke-miterlimit="10" stroke-linecap="round" stroke-linejoin="round"/>
<path d="M12.4876 11.082H9.61182" stroke="black" stroke-miterlimit="10" stroke-linecap="round" stroke-linejoin="round"/>
<path d="M10.1883 8.83496H7.42188" stroke="black" stroke-miterlimit="10" stroke-linecap="round" stroke-linejoin="round"/>
<path d="M26.4256 23.4883H5.04785" stroke="black" stroke-miterlimit="10" stroke-linecap="round" stroke-linejoin="round"/>
</svg>
