<svg width="33" height="32" viewBox="0 0 33 32" fill="none" xmlns="http://www.w3.org/2000/svg">
<path d="M30.3419 12.4159C29.9393 11.8244 29.5591 11.2659 29.3388 10.7451C29.109 10.2018 28.9775 9.51956 28.8383 8.79725C28.5952 7.53537 28.3437 6.23056 27.5065 5.39337C26.6694 4.55619 25.3645 4.30475 24.1027 4.06156C23.3804 3.92237 22.6981 3.79087 22.1548 3.56113C21.6341 3.34081 21.0755 2.96056 20.484 2.558C19.3588 1.79206 18.1952 1 16.8999 1C15.6046 1 14.4411 1.79206 13.3158 2.558C12.7243 2.96056 12.1658 3.34081 11.645 3.56113C11.1017 3.79087 10.4195 3.92237 9.69715 4.06156C8.43528 4.30475 7.13046 4.55625 6.29328 5.39337C5.45609 6.2305 5.20465 7.53537 4.96146 8.79725C4.82228 9.51956 4.69078 10.2018 4.46103 10.7451C4.24071 11.2658 3.86046 11.8244 3.4579 12.4159C2.69196 13.5412 1.8999 14.7048 1.8999 16C1.8999 17.2952 2.69196 18.4588 3.4579 19.5841C3.86046 20.1756 4.24071 20.7341 4.46103 21.2549C4.69078 21.7982 4.82228 22.4804 4.96146 23.2027C5.20465 24.4646 5.45615 25.7694 6.29328 26.6066C7.1304 27.4438 8.43528 27.6953 9.69715 27.9384C10.4195 28.0776 11.1017 28.2091 11.645 28.4389C12.1657 28.6592 12.7243 29.0394 13.3158 29.442C14.4411 30.2079 15.6047 31 16.8999 31C18.1952 31 19.3588 30.2079 20.484 29.442C21.0755 29.0394 21.634 28.6592 22.1548 28.4389C22.6981 28.2091 23.3804 28.0776 24.1027 27.9384C25.3645 27.6953 26.6694 27.4438 27.5065 26.6066C28.3437 25.7695 28.5952 24.4646 28.8383 23.2027C28.9775 22.4804 29.109 21.7982 29.3388 21.2549C29.5591 20.7342 29.9393 20.1756 30.3419 19.5841C31.1078 18.4588 31.8999 17.2952 31.8999 16C31.8999 14.7048 31.1078 13.5412 30.3419 12.4159ZM29.5153 19.0214C29.084 19.6549 28.6767 20.2534 28.4178 20.8652C28.147 21.5054 27.999 22.2719 27.8564 23.0133C27.6417 24.1271 27.4197 25.2789 26.7994 25.8993C26.1791 26.5196 25.0273 26.7416 23.9134 26.9562C23.172 27.0991 22.4055 27.2469 21.7653 27.5176C21.1533 27.7765 20.5548 28.1838 19.9216 28.6151C18.9213 29.2961 17.8874 30 16.8999 30C15.9124 30 14.8786 29.2961 13.8785 28.6153C13.245 28.1841 12.6465 27.7768 12.0347 27.5179C11.3945 27.2471 10.628 27.0991 9.88665 26.9565C8.77278 26.7418 7.62103 26.5198 7.00065 25.8995C6.38028 25.2792 6.15809 24.1274 5.94365 23.0135C5.80078 22.2721 5.65303 21.5056 5.38228 20.8654C5.1234 20.2534 4.71609 19.6549 4.28484 19.0217C3.60384 18.0213 2.8999 16.9875 2.8999 16C2.8999 15.0125 3.60384 13.9787 4.28459 12.9786C4.71584 12.3451 5.12315 11.7466 5.38203 11.1348C5.65278 10.4946 5.80078 9.72812 5.9434 8.98675C6.15809 7.87287 6.38009 6.72113 7.0004 6.10075C7.62072 5.48037 8.77253 5.25819 9.8864 5.04375C10.6278 4.90087 11.3943 4.75313 12.0345 4.48238C12.6465 4.2235 13.245 3.81619 13.8782 3.38494C14.8786 2.70394 15.9127 2 16.8999 2C17.8871 2 18.9213 2.70394 19.9213 3.38469C20.5548 3.81594 21.1533 4.22325 21.7651 4.48212C22.4053 4.75287 23.1718 4.90087 23.9132 5.0435C25.027 5.25819 26.1788 5.48019 26.7992 6.1005C27.4195 6.72081 27.6415 7.87262 27.8562 8.9865C27.999 9.72787 28.1468 10.4944 28.4175 11.1346C28.6764 11.7466 29.0837 12.3451 29.515 12.9783C30.196 13.9787 30.8999 15.0128 30.8999 16C30.8999 16.9872 30.196 18.0213 29.5153 19.0214Z" fill="#101A33"/>
<path d="M23.0611 18.1128C23.2525 17.8276 23.3671 17.498 23.394 17.1556C23.4209 16.8133 23.3592 16.4698 23.2147 16.1582C23.0702 15.8467 22.8479 15.5777 22.5693 15.377C22.2906 15.1764 21.9649 15.0509 21.6236 15.0128C21.8756 14.5841 21.9588 14.0769 21.8569 13.5902C21.755 13.1035 21.4753 12.6723 21.0725 12.3808C20.6697 12.0892 20.1727 11.9583 19.6786 12.0135C19.1844 12.0688 18.7286 12.3062 18.4001 12.6795C18.0821 12.3177 17.6441 12.0829 17.1667 12.0186L17.8792 9.64394C17.9036 9.56259 17.9069 9.47637 17.8887 9.3934C17.8706 9.31043 17.8316 9.23345 17.7754 9.16972C17.7193 9.106 17.6478 9.05763 17.5678 9.02917C17.4878 9.00071 17.4018 8.9931 17.3181 9.00707L14.6368 9.45388L13.8161 8.22263C13.7751 8.16108 13.7209 8.10941 13.6575 8.07133C13.5941 8.03325 13.523 8.00972 13.4494 8.00243C13.3758 7.99514 13.3014 8.00428 13.2318 8.02918C13.1621 8.05409 13.0989 8.09414 13.0466 8.14644C12.2978 8.89526 12.038 10.0791 11.9479 10.8222L11.0582 10.5257C10.9929 10.5039 10.9237 10.4959 10.8551 10.5021C10.7865 10.5083 10.7199 10.5286 10.6595 10.5617C10.5991 10.5949 10.5462 10.6402 10.5042 10.6947C10.4621 10.7493 10.4318 10.8119 10.4151 10.8788C10.1744 11.8413 10.395 12.8468 11.053 13.7868C11.2068 14.0053 11.3767 14.2121 11.5612 14.4055C11.415 14.6428 11.2808 14.8874 11.1591 15.1383C10.8463 14.8454 10.5568 14.5286 10.2935 14.1905C10.2532 14.1381 10.203 14.0942 10.1456 14.0613C10.0883 14.0284 10.025 14.0073 9.95946 13.999C9.89388 13.9907 9.82733 13.9956 9.76363 14.0132C9.69993 14.0308 9.64036 14.0609 9.58836 14.1017C9.53636 14.1425 9.49297 14.1932 9.46068 14.2508C9.4284 14.3085 9.40787 14.372 9.40028 14.4377C9.39269 14.5033 9.39819 14.5698 9.41647 14.6333C9.43474 14.6969 9.46542 14.7561 9.50675 14.8077C9.9669 15.401 10.4999 15.9341 11.0932 16.3943C12.0801 17.1614 12.9195 17.4046 13.457 17.4723C13.5039 17.6649 13.5793 17.8495 13.6807 18.0198C13.3379 17.971 12.9883 18.012 12.6661 18.1388C12.3438 18.2657 12.0601 18.474 11.8425 18.7434C11.625 19.0128 11.4811 19.3341 11.425 19.6758C11.369 20.0175 11.4025 20.368 11.5225 20.6928C11.6425 21.0176 11.8448 21.3058 12.1095 21.529C12.3743 21.7522 12.6925 21.9028 13.0329 21.9661C13.3734 22.0294 13.7244 22.0033 14.0517 21.8902C14.379 21.7771 14.6714 21.581 14.9001 21.321C15.0874 21.5344 15.3181 21.7054 15.5768 21.8225C15.8355 21.9397 16.1162 22.0002 16.4001 22.0002C16.6841 22.0002 16.9648 21.9397 17.2234 21.8225C17.4821 21.7054 17.7128 21.5344 17.9001 21.321C18.0874 21.5344 18.3181 21.7054 18.5768 21.8225C18.8355 21.9397 19.1162 22.0002 19.4001 22.0002C19.6841 22.0002 19.9648 21.9397 20.2234 21.8225C20.4821 21.7054 20.7128 21.5344 20.9001 21.321C21.1021 21.5504 21.3541 21.7304 21.6366 21.8472C21.9191 21.9641 22.2246 22.0145 22.5296 21.9948C22.8347 21.975 23.1311 21.8856 23.3962 21.7334C23.6613 21.5811 23.8879 21.3701 24.0587 21.1166C24.2295 20.8631 24.3398 20.5738 24.3813 20.2709C24.4228 19.968 24.3942 19.6597 24.2979 19.3696C24.2015 19.0795 24.0399 18.8154 23.8255 18.5975C23.6111 18.3796 23.3496 18.2138 23.0611 18.1128ZM13.4736 16.4637C13.1291 16.4036 12.6001 16.2362 11.9581 15.7897C12.069 15.5312 12.1986 15.2812 12.346 15.0417C12.8935 15.3092 13.4951 15.4473 14.1044 15.4451C14.1177 15.4451 14.1312 15.4448 14.1446 15.4447C13.8205 15.7065 13.586 16.0627 13.4737 16.4639L13.4736 16.4637ZM19.4001 17.0003C19.4001 17.198 19.3415 17.3914 19.2316 17.5558C19.1217 17.7203 18.9655 17.8484 18.7828 17.9241C18.6001 17.9998 18.399 18.0196 18.205 17.981C18.011 17.9425 17.8329 17.8472 17.693 17.7074C17.5532 17.5675 17.4579 17.3893 17.4193 17.1953C17.3808 17.0014 17.4006 16.8003 17.4762 16.6176C17.5519 16.4348 17.6801 16.2787 17.8446 16.1688C18.009 16.0589 18.2023 16.0003 18.4001 16.0003C18.6652 16.0006 18.9194 16.106 19.1069 16.2935C19.2943 16.481 19.3998 16.7351 19.4001 17.0003ZM15.4001 16.0003C15.5979 16.0003 15.7912 16.0589 15.9557 16.1688C16.1201 16.2787 16.2483 16.4348 16.324 16.6176C16.3997 16.8003 16.4195 17.0014 16.3809 17.1953C16.3423 17.3893 16.2471 17.5675 16.1072 17.7074C15.9674 17.8472 15.7892 17.9425 15.5952 17.981C15.4012 18.0196 15.2002 17.9998 15.0174 17.9241C14.8347 17.8484 14.6785 17.7203 14.5687 17.5558C14.4588 17.3914 14.4001 17.198 14.4001 17.0003C14.4004 16.7351 14.5059 16.481 14.6934 16.2935C14.8808 16.106 15.135 16.0006 15.4001 16.0003ZM22.4001 17.0003C22.4001 17.198 22.3415 17.3914 22.2316 17.5558C22.1217 17.7203 21.9655 17.8484 21.7828 17.9241C21.6001 17.9998 21.399 18.0196 21.205 17.981C21.011 17.9425 20.8329 17.8472 20.693 17.7074C20.5532 17.5675 20.4579 17.3893 20.4193 17.1953C20.3807 17.0014 20.4006 16.8003 20.4762 16.6176C20.5519 16.4348 20.6801 16.2787 20.8446 16.1688C21.009 16.0589 21.2023 16.0003 21.4001 16.0003C21.6652 16.0006 21.9194 16.106 22.1069 16.2935C22.2943 16.481 22.3998 16.7351 22.4001 17.0003ZM19.9001 13.0003C20.0979 13.0003 20.2912 13.0589 20.4557 13.1688C20.6201 13.2787 20.7483 13.4348 20.824 13.6176C20.8997 13.8003 20.9195 14.0014 20.8809 14.1953C20.8423 14.3893 20.7471 14.5675 20.6072 14.7074C20.4674 14.8472 20.2892 14.9425 20.0952 14.981C19.9012 15.0196 19.7002 14.9998 19.5174 14.9241C19.3347 14.8484 19.1785 14.7203 19.0687 14.5558C18.9588 14.3914 18.9001 14.198 18.9001 14.0003C18.9004 13.7351 19.0059 13.481 19.1934 13.2935C19.3808 13.106 19.635 13.0006 19.9001 13.0003ZM17.9001 14.0003C17.9001 14.198 17.8415 14.3914 17.7316 14.5558C17.6217 14.7203 17.4655 14.8484 17.2828 14.9241C17.1001 14.9998 16.899 15.0196 16.705 14.981C16.511 14.9425 16.3329 14.8472 16.193 14.7074C16.0532 14.5675 15.9579 14.3893 15.9193 14.1953C15.8807 14.0014 15.9006 13.8003 15.9762 13.6176C16.0519 13.4348 16.1801 13.2787 16.3445 13.1688C16.509 13.0589 16.7023 13.0003 16.9001 13.0003C17.1652 13.0006 17.4194 13.106 17.6069 13.2935C17.7943 13.481 17.8998 13.7351 17.9001 14.0003ZM12.242 11.9746C12.3171 11.9995 12.3971 12.0063 12.4753 11.9944C12.5535 11.9824 12.6278 11.9521 12.6921 11.9059C12.7563 11.8597 12.8086 11.7988 12.8448 11.7285C12.881 11.6581 12.8999 11.5801 12.9001 11.5009C12.9001 11.4861 12.91 10.2708 13.3814 9.37338L13.9842 10.2776C14.0376 10.3578 14.1131 10.4208 14.2014 10.459C14.2898 10.4973 14.3874 10.5093 14.4824 10.4934L16.6906 10.1253L16.0744 12.1793C15.6716 12.3613 15.3406 12.6718 15.1333 13.0622C14.926 13.4526 14.8541 13.9008 14.9289 14.3364C14.2567 14.5222 13.5414 14.474 12.9001 14.1998C13.416 13.4833 14.0572 12.7601 14.6416 12.4379C14.7575 12.3737 14.8432 12.2662 14.8799 12.1389C14.9165 12.0116 14.9012 11.875 14.8373 11.759C14.7733 11.643 14.6659 11.5572 14.5387 11.5203C14.4115 11.4834 14.2748 11.4984 14.1587 11.5622C13.3559 12.0049 12.6007 12.9106 12.1332 13.5504C11.7562 13.1129 11.3286 12.4471 11.3207 11.6674L12.242 11.9746ZM13.4001 21.0003C13.2023 21.0003 13.009 20.9416 12.8445 20.8317C12.6801 20.7218 12.5519 20.5657 12.4762 20.3829C12.4006 20.2002 12.3807 19.9991 12.4193 19.8052C12.4579 19.6112 12.5532 19.433 12.693 19.2931C12.8329 19.1533 13.011 19.0581 13.205 19.0195C13.399 18.9809 13.6001 19.0007 13.7828 19.0764C13.9655 19.1521 14.1217 19.2802 14.2316 19.4447C14.3415 19.6091 14.4001 19.8025 14.4001 20.0003C14.3998 20.2654 14.2943 20.5195 14.1069 20.707C13.9194 20.8945 13.6652 20.9999 13.4001 21.0003ZM16.4001 21.0003C16.2023 21.0003 16.009 20.9416 15.8445 20.8317C15.6801 20.7218 15.5519 20.5657 15.4762 20.3829C15.4006 20.2002 15.3807 19.9991 15.4193 19.8052C15.4579 19.6112 15.5532 19.433 15.693 19.2931C15.8329 19.1533 16.011 19.0581 16.205 19.0195C16.399 18.9809 16.6001 19.0007 16.7828 19.0764C16.9655 19.1521 17.1217 19.2802 17.2316 19.4447C17.3415 19.6091 17.4001 19.8025 17.4001 20.0003C17.3998 20.2654 17.2943 20.5195 17.1069 20.707C16.9194 20.8945 16.6652 20.9999 16.4001 21.0003ZM19.4001 21.0003C19.2023 21.0003 19.009 20.9416 18.8446 20.8317C18.6801 20.7218 18.5519 20.5657 18.4762 20.3829C18.4006 20.2002 18.3807 19.9991 18.4193 19.8052C18.4579 19.6112 18.5532 19.433 18.693 19.2931C18.8329 19.1533 19.011 19.0581 19.205 19.0195C19.399 18.9809 19.6001 19.0007 19.7828 19.0764C19.9655 19.1521 20.1217 19.2802 20.2316 19.4447C20.3415 19.6091 20.4001 19.8025 20.4001 20.0003C20.3998 20.2654 20.2943 20.5195 20.1069 20.707C19.9194 20.8945 19.6652 20.9999 19.4001 21.0003ZM22.4001 21.0003C22.2023 21.0003 22.009 20.9416 21.8446 20.8317C21.6801 20.7218 21.5519 20.5657 21.4762 20.3829C21.4006 20.2002 21.3807 19.9991 21.4193 19.8052C21.4579 19.6112 21.5532 19.433 21.693 19.2931C21.8329 19.1533 22.011 19.0581 22.205 19.0195C22.399 18.9809 22.6001 19.0007 22.7828 19.0764C22.9655 19.1521 23.1217 19.2802 23.2316 19.4447C23.3415 19.6091 23.4001 19.8025 23.4001 20.0003C23.3998 20.2654 23.2943 20.5195 23.1069 20.707C22.9194 20.8945 22.6652 20.9999 22.4001 21.0003Z" fill="#101A33"/>
<path d="M16.8999 5C10.8345 5 5.8999 9.93456 5.8999 16C5.8999 22.0654 10.8345 27 16.8999 27C22.9653 27 27.8999 22.0654 27.8999 16C27.8999 9.93456 22.9653 5 16.8999 5ZM16.8999 26C11.3859 26 6.8999 21.514 6.8999 16C6.8999 10.486 11.3859 6 16.8999 6C22.4139 6 26.8999 10.486 26.8999 16C26.8999 21.514 22.414 26 16.8999 26Z" fill="#101A33"/>
</svg>
