<svg width="33" height="32" viewBox="0 0 33 32" fill="none" xmlns="http://www.w3.org/2000/svg">
<path d="M16.4264 30.4755C16.2361 30.4755 16.0578 30.3807 15.9521 30.223L12.0526 24.4184C11.9675 24.2915 11.9366 24.1361 11.9669 23.9864L14.0115 13.8675L15.1315 14.0938L13.1344 23.9784L16.4264 28.879L19.7184 23.9784L17.7212 14.0938C17.6944 13.9613 17.7155 13.8235 17.7806 13.7047L18.5806 12.251L19.5818 12.8024L18.8824 14.0727L20.8852 23.9858C20.9155 24.1355 20.8846 24.291 20.7995 24.4178L16.9001 30.2224C16.7944 30.3807 16.6166 30.4755 16.4264 30.4755Z" fill="#101A33"/>
<path d="M16.4264 14.5529H14.571C14.3693 14.5529 14.1824 14.446 14.0796 14.2729L13.3733 13.0814C13.2127 12.81 13.3018 12.4597 13.5738 12.2986C13.8447 12.138 14.1956 12.2271 14.3567 12.4991L14.8967 13.4106H16.4264C16.7418 13.4106 16.9978 13.6666 16.9978 13.982C16.9978 14.2974 16.7418 14.5529 16.4264 14.5529Z" fill="#101A33"/>
<path d="M16.4256 30.4759C16.3159 30.4759 16.2051 30.4445 16.1073 30.3787C15.8456 30.2027 15.7753 29.8473 15.9519 29.5856L19.8513 23.781C20.0279 23.5199 20.3822 23.449 20.6445 23.6256C20.9062 23.8016 20.9759 24.157 20.7999 24.4187L16.9005 30.2233C16.7902 30.3873 16.6091 30.4759 16.4256 30.4759Z" fill="#101A33"/>
<path d="M14.3836 27.0697C14.2744 27.0697 14.1641 27.0383 14.0664 26.9732C13.8041 26.7977 13.7333 26.4429 13.9093 26.1806L17.1339 21.3583C17.3093 21.0955 17.6647 21.0257 17.9264 21.2012C18.1887 21.3766 18.2596 21.7315 18.0836 21.9937L14.859 26.816C14.7493 26.9806 14.5681 27.0697 14.3836 27.0697Z" fill="#101A33"/>
<path d="M15.3695 20.6476C15.2615 20.6476 15.1523 20.6168 15.0552 20.5528C14.7918 20.3791 14.7198 20.0242 14.8935 19.7608L17.9443 15.1442C18.1186 14.8802 18.4723 14.8088 18.7363 14.9825C18.9992 15.1568 19.0718 15.5111 18.8975 15.7745L15.8472 20.3916C15.7375 20.5579 15.5552 20.6476 15.3695 20.6476Z" fill="#101A33"/>
<path d="M12.4792 14.5565C12.4644 14.5565 12.4495 14.556 12.4341 14.5548C12.2512 14.5405 12.0867 14.4388 11.9912 14.2828L7.67067 7.20397C7.53181 6.97655 7.56838 6.68283 7.75981 6.49712L10.3524 3.9714C10.517 3.81083 10.7621 3.76569 10.973 3.85426C11.0672 3.89426 11.1467 3.95712 11.2061 4.0354C11.573 4.3994 14.8484 7.14797 16.8655 8.8274C16.9832 8.92512 17.0564 9.06569 17.0695 9.21769C17.0827 9.36969 17.0341 9.52112 16.9352 9.63712L12.9141 14.356C12.805 14.4834 12.6455 14.5565 12.4792 14.5565ZM8.88381 6.99769L12.5558 13.0143L15.6901 9.3354C12.781 6.91312 11.4072 5.76569 10.7592 5.16969L8.88381 6.99769Z" fill="#101A33"/>
<path d="M20.5212 14.557C20.3543 14.557 20.1955 14.4844 20.0863 14.3558L16.0646 9.63699C15.9658 9.52099 15.9172 9.36956 15.9303 9.21756C15.9435 9.06556 16.0166 8.92499 16.1343 8.82727C18.1515 7.14784 21.4275 4.39927 21.7938 4.03527C21.8532 3.95699 21.9326 3.89413 22.0269 3.85413C22.2378 3.76556 22.484 3.81127 22.648 3.97127L25.24 6.49699C25.4309 6.68327 25.4675 6.97642 25.3286 7.20384L21.0081 14.2827C20.9126 14.4387 20.7481 14.5404 20.5658 14.5547C20.5515 14.5564 20.536 14.557 20.5212 14.557ZM17.3098 9.33584L20.4441 13.0147L24.1166 6.99813L22.2412 5.1707C21.5926 5.76613 20.2195 6.91356 17.3098 9.33584Z" fill="#101A33"/>
<path d="M22.2501 4.95243H10.7506C10.4352 4.95243 10.1792 4.69643 10.1792 4.381C10.1792 4.06557 10.4352 3.80957 10.7506 3.80957H22.2495C22.5655 3.80957 22.8209 4.06557 22.8209 4.381C22.8209 4.69643 22.5655 4.95243 22.2501 4.95243Z" fill="#101A33"/>
<path d="M11.5013 27.1077H8.15216C7.34187 27.1077 6.6453 26.502 6.5333 25.6997L3.70301 9.21625C3.63215 8.71397 3.70301 7.8334 4.94073 7.38654L7.85273 6.40597C8.15273 6.3054 8.47616 6.46597 8.57673 6.76483C8.6773 7.06368 8.51673 7.38825 8.21787 7.48883L5.3173 8.46597C4.77901 8.66025 4.80987 8.87968 4.83216 9.04025L7.66244 25.5243C7.69901 25.7831 7.90873 25.9648 8.15273 25.9648H11.5019C11.8173 25.9648 12.0733 26.2203 12.0733 26.5363C12.0733 26.8523 11.8173 27.1077 11.5013 27.1077Z" fill="#101A33"/>
<path d="M24.8478 27.1078H21.4987C21.1827 27.1078 20.9272 26.8524 20.9272 26.5364C20.9272 26.2204 21.1827 25.9649 21.4987 25.9649H24.8478C25.0918 25.9649 25.301 25.7832 25.3352 25.5415L28.1712 9.02265C28.1907 8.8798 28.2215 8.66037 27.6718 8.46208L24.7535 7.47922C24.4547 7.37865 24.2935 7.05408 24.3947 6.75522C24.4952 6.45694 24.8175 6.29522 25.1187 6.39637L28.0484 7.38322C29.2975 7.83351 29.369 8.71408 29.3004 9.19865L26.4644 25.7175C26.3541 26.5027 25.6581 27.1078 24.8478 27.1078Z" fill="#101A33"/>
</svg>
