<svg width="21" height="20" viewBox="0 0 21 20" fill="none" xmlns="http://www.w3.org/2000/svg">
<path d="M8.62153 3.98047C7.71951 3.98047 6.98828 3.24924 6.98828 2.34722C6.98828 1.4452 7.71951 0.713976 8.62153 0.713976C9.52355 0.713976 10.2548 1.4452 10.2548 2.34722C10.2548 3.24924 9.52355 3.98047 8.62153 3.98047Z" stroke="#101A33" stroke-width="1.2" stroke-miterlimit="10" stroke-linejoin="round"/>
<path d="M8.47168 6.28307V13.4514H14.3195L16.9605 18.7334" stroke="#101A33" stroke-width="1.2" stroke-miterlimit="10" stroke-linecap="round" stroke-linejoin="round"/>
<path d="M14.1473 13.4771C14.1572 13.611 14.1623 13.7462 14.1623 13.8825C14.1623 16.8663 11.7434 19.2852 8.75963 19.2852C5.77579 19.2852 3.35693 16.8663 3.35693 13.8825C3.35693 10.9961 5.62041 8.63836 8.46928 8.48746" stroke="#101A33" stroke-width="1.2" stroke-miterlimit="10" stroke-linejoin="round"/>
<path d="M13.1437 9.25937C13.4751 9.25937 13.7437 9.528 13.7437 9.85938C13.7437 10.1907 13.4751 10.4594 13.1437 10.4594V9.25937ZM8.50146 9.25937H13.1437V10.4594H8.50146V9.25937Z" fill="#101A33"/>
</svg>
