<svg width="21" height="20" viewBox="0 0 21 20" fill="none" xmlns="http://www.w3.org/2000/svg">
<path d="M16.0148 9.29883C14.462 7.73746 12.4867 6.9275 10.4818 6.92756C8.47697 6.92761 6.50114 7.73757 4.94873 9.29883" stroke="#101A33" stroke-width="1.2" stroke-miterlimit="10" stroke-linecap="round" stroke-linejoin="round"/>
<path d="M13.3216 12.127C12.5597 11.3659 11.4709 10.9069 10.4983 10.9071H10.4492C9.47663 10.9069 8.37419 11.3659 7.6123 12.127" stroke="#101A33" stroke-width="1.2" stroke-miterlimit="10" stroke-linecap="round" stroke-linejoin="round"/>
<path d="M10.4987 13.945C11.2218 13.945 11.808 14.5311 11.808 15.2542C11.808 15.9773 11.2218 16.5635 10.4987 16.5635C9.77563 16.5635 9.18945 15.9773 9.18945 15.2542C9.18945 14.5311 9.77563 13.945 10.4987 13.945Z" fill="#101A33"/>
<path d="M18.5 6.49121C16.2749 4.10381 13.3874 2.99963 10.4999 2.99969C7.61249 2.99974 4.72505 4.10386 2.5 6.49121" stroke="#101A33" stroke-width="1.2" stroke-miterlimit="10" stroke-linecap="round" stroke-linejoin="round"/>
</svg>
