<svg width="33" height="32" viewBox="0 0 33 32" fill="none" xmlns="http://www.w3.org/2000/svg">
<g clip-path="url(#clip0_359_571)">
<path d="M22 30.6875V29.958C22 27.0936 19.75 24.75 17 24.75C14.25 24.75 12 27.0936 12 29.958V30.6951" stroke="black" stroke-miterlimit="22.9256" stroke-linecap="round" stroke-linejoin="round"/>
<path d="M17.3641 24.7259C18.904 24.5242 19.9888 23.1122 19.7871 21.5723C19.5853 20.0324 18.1734 18.9476 16.6335 19.1493C15.0936 19.3511 14.0088 20.763 14.2105 22.3029C14.4123 23.8429 15.8242 24.9277 17.3641 24.7259Z" stroke="black" stroke-miterlimit="22.9256" stroke-linecap="round" stroke-linejoin="round"/>
<path d="M27.2117 24.7409C28.7603 24.6233 29.9204 23.2726 29.8029 21.724C29.6853 20.1753 28.3346 19.0152 26.786 19.1328C25.2373 19.2504 24.0772 20.6011 24.1948 22.1497C24.3124 23.6984 25.6631 24.8584 27.2117 24.7409Z" stroke="black" stroke-miterlimit="22.9256" stroke-linecap="round" stroke-linejoin="round"/>
<path d="M17 16.6865H2V19.1255H17V16.6865Z" stroke="black" stroke-miterlimit="2.6131" stroke-linecap="round" stroke-linejoin="round"/>
<path d="M7.04688 23.3936H11.9535" stroke="black" stroke-miterlimit="2.6131" stroke-linecap="round" stroke-linejoin="round"/>
<path d="M3.21973 19.4307V31.0004H32.0001V29.9584C32.0001 27.0941 29.7501 24.7505 27.0001 24.7505C24.2501 24.7505 22.0001 27.094 22.0001 29.9584" stroke="black" stroke-miterlimit="2.6131" stroke-linecap="round" stroke-linejoin="round"/>
<path fill-rule="evenodd" clip-rule="evenodd" d="M26.6909 2.93042C27.3981 3.17206 28.0426 3.54908 28.5935 4.03054L30.3742 3.25036L32.0001 6.06663L30.4351 7.21796C30.5047 7.57363 30.5414 7.94101 30.5414 8.31698C30.5414 8.69302 30.5047 9.06039 30.4351 9.416L32.0001 10.5673L30.3742 13.3836L28.5935 12.6034C28.0426 13.0848 27.3982 13.462 26.6909 13.7035L26.4763 15.6341H23.2244L23.0099 13.7037C22.3026 13.4621 21.6581 13.0851 21.1073 12.6036L19.3267 13.3837L17.7007 10.5674L19.2659 9.416C19.1963 9.06039 19.1594 8.69302 19.1594 8.31704C19.1594 7.94101 19.1961 7.57363 19.2657 7.21802L17.7007 6.06663L19.3267 3.25036L21.1073 4.03054C21.6582 3.54914 22.3026 3.172 23.0099 2.93042L23.2244 1H26.4763L26.6909 2.93042ZM24.8504 6.28455C25.9729 6.28455 26.8829 7.19449 26.8829 8.31704C26.8829 9.4396 25.973 10.3495 24.8504 10.3495C23.7279 10.3495 22.8179 9.4396 22.8179 8.31704C22.8179 7.19449 23.7279 6.28455 24.8504 6.28455Z" stroke="black" stroke-miterlimit="2.6131" stroke-linecap="round" stroke-linejoin="round"/>
<path d="M8.90958 11.3685C10.4256 10.7405 11.1454 9.00251 10.5175 7.48653C9.88954 5.97055 8.15154 5.25066 6.63555 5.87861C5.11957 6.50657 4.39968 8.24457 5.02764 9.76055C5.65559 11.2765 7.39359 11.9964 8.90958 11.3685Z" stroke="black" stroke-miterlimit="2.6131" stroke-linecap="round" stroke-linejoin="round"/>
<path d="M11.5101 16.3816V13.283M11.5101 13.283L11.5115 13.2846C11.511 13.284 11.5106 13.2835 11.5101 13.283ZM11.5101 13.283C12.7006 12.765 13.7623 12.0125 14.6345 11.0864C15.0949 10.597 15.0715 9.82709 14.5821 9.36667C14.0928 8.90624 13.3229 8.92972 12.8624 9.41905C12.2071 10.115 11.4171 10.6765 10.5383 11.0577C9.6966 11.4229 8.76166 11.6256 7.77282 11.6256C5.71734 11.6256 4.03564 13.3073 4.03564 15.3627V16.3816" stroke="black" stroke-miterlimit="2.6131" stroke-linecap="round" stroke-linejoin="round"/>
</g>
<defs>
<clipPath id="clip0_359_571">
<rect width="32" height="32" fill="white" transform="translate(0.700195)"/>
</clipPath>
</defs>
</svg>
